<?xml version="1.0" encoding="UTF-8" standalone="no"?>
<!DOCTYPE svg PUBLIC "-//W3C//DTD SVG 1.1//EN" "http://www.w3.org/Graphics/SVG/1.1/DTD/svg11.dtd">
<svg width="100%" height="100%" viewBox="0 0 778 300" version="1.1" xmlns="http://www.w3.org/2000/svg" xmlns:xlink="http://www.w3.org/1999/xlink" xml:space="preserve" xmlns:serif="http://www.serif.com/" style="fill-rule:evenodd;clip-rule:evenodd;stroke-linejoin:round;stroke-miterlimit:2;">
    <g id="dev" transform="matrix(0.476154,0,0,0.476154,-129.134,-337.581)">
        <path d="M1114.23,1045.54C1118.88,1037.4 1124.5,1029.89 1131.08,1023C1153.52,999.518 1180.24,987.775 1211.23,987.775C1227.02,987.775 1241.94,990.628 1256.02,996.333C1270.09,1002.04 1283.4,1010.6 1295.95,1022.01L1295.95,930.725C1295.95,905.813 1295.62,890.124 1294.95,883.658C1294.29,877.192 1291.58,872.248 1286.83,868.825C1282.07,865.402 1273.61,863.69 1261.44,863.69L1255.45,863.69L1255.45,850.568C1278.46,849.998 1303.65,846.004 1331.04,838.588L1337.03,838.588L1337.03,1152.65C1337.03,1179.85 1337.51,1196.39 1338.46,1202.29C1339.41,1208.18 1342.4,1212.56 1347.44,1215.41C1352.48,1218.26 1361.85,1219.69 1375.54,1219.69L1375.54,1232.81C1347.96,1233.38 1323.43,1235.85 1301.94,1240.23C1299.66,1231.29 1298.52,1217.21 1298.52,1198.01C1284.45,1212.08 1269.95,1222.63 1255.02,1229.67C1240.09,1236.71 1224.64,1240.23 1208.67,1240.23C1178.43,1240.23 1152.33,1228.05 1130.36,1203.71C1108.4,1179.37 1097.42,1149.89 1097.42,1115.28C1097.42,1113.54 1097.44,1111.81 1097.49,1110.1L1038.75,1336.55L988.433,1336.55L1150.58,711.449L1200.89,711.449L1114.23,1045.54ZM1561.72,1076.2L1398.84,1076.2C1398.08,1087.42 1397.7,1095.79 1397.7,1101.31C1397.7,1142.38 1404.12,1173.24 1416.95,1193.87C1429.79,1214.5 1448.95,1224.82 1474.43,1224.82C1509.04,1224.82 1533.57,1209.32 1548.03,1178.33L1561.72,1178.33C1555.63,1197.72 1543.56,1212.89 1525.49,1223.82C1507.42,1234.76 1487.74,1240.23 1466.44,1240.23C1446.67,1240.23 1427.98,1235.23 1410.39,1225.25C1392.8,1215.27 1378.39,1201.14 1367.17,1182.89C1355.95,1164.63 1350.35,1142.48 1350.35,1116.42C1350.35,1079.53 1361.18,1048.87 1382.86,1024.43C1404.54,999.994 1431.64,987.775 1464.16,987.775C1494.78,987.775 1518.45,997.094 1535.19,1015.73C1551.92,1034.37 1560.77,1054.53 1561.72,1076.2ZM1684.98,1240.23L1668.44,1240.23L1585.43,1052.81C1577.25,1034.75 1570.79,1023.24 1566.03,1018.3C1561.28,1013.35 1553.48,1010.69 1542.64,1010.31L1542.64,997.189L1648.18,997.189L1648.18,1010.31C1636.58,1010.31 1628.64,1011.26 1624.37,1013.16C1620.09,1015.07 1617.95,1018.68 1617.95,1024C1617.95,1028.19 1621.75,1038.36 1629.36,1054.53L1692.4,1196.3L1749.16,1069.93C1758.1,1049.77 1762.57,1036.65 1762.57,1030.56C1762.57,1017.82 1753.06,1011.07 1734.05,1010.31L1734.05,997.189L1812.78,997.189L1812.78,1010.31C1803.08,1010.88 1794.95,1014.92 1788.39,1022.43C1781.83,1029.94 1772.65,1046.82 1760.86,1073.07L1684.98,1240.23ZM1295.95,1038.55C1283.4,1027.71 1270.8,1019.58 1258.16,1014.16C1245.51,1008.74 1232.82,1006.03 1220.08,1006.03C1198.59,1006.03 1180.66,1014.3 1166.31,1030.85C1151.95,1047.39 1144.77,1074.4 1144.77,1111.86C1144.77,1149.89 1152.14,1177.94 1166.88,1196.01C1181.61,1214.08 1199.82,1223.11 1221.5,1223.11C1235.95,1223.11 1249.36,1219.69 1261.72,1212.84C1274.08,1205.99 1285.49,1195.73 1295.95,1182.03L1295.95,1038.55ZM1511.8,1064.79C1512.37,1060.42 1512.65,1056.52 1512.65,1053.1C1512.65,1036.36 1507.76,1023.38 1497.96,1014.16C1488.17,1004.94 1476.14,1000.33 1461.88,1000.33C1427.27,1000.33 1406.63,1021.82 1399.98,1064.79L1511.8,1064.79Z" style="fill:rgb(62,169,117);fill-rule:nonzero;"/>
    </g>
    <g id="crx" transform="matrix(0.476154,0,0,0.476154,-129.134,-337.581)">
        <path d="M1000.21,1096.43C996.033,1092.01 991.492,1086.73 986.593,1080.61L920.985,998.168L967.196,945.397C987.163,922.576 1006.47,910.881 1025.1,910.31L1025.1,897.189L932.395,897.189L932.395,910.31C953.313,910.31 963.773,915.35 963.773,925.429C963.773,927.901 959.494,934.272 950.936,944.541L912.998,989.04L871.921,938.265C864.885,929.898 861.367,924.098 861.367,920.865C861.367,913.829 869.259,910.31 885.043,910.31L885.043,897.189L774.935,897.189L774.935,910.31C785.204,910.31 794.142,912.925 801.749,918.155C809.355,923.385 820.48,935.318 835.123,953.954L886.754,1019.28L838.546,1076.33C822.572,1095.15 809.546,1106.76 799.467,1111.13C789.388,1115.5 780.165,1117.69 771.797,1117.69L771.797,1130.81L867.928,1130.81L867.928,1117.69C846.819,1117.5 836.264,1112.65 836.264,1103.14C836.264,1100.1 841.494,1092.49 851.953,1080.32L894.741,1029.55L940.952,1086.88C949.7,1096.96 954.074,1103.52 954.074,1106.57C954.074,1113.98 944.471,1117.69 925.263,1117.69L925.263,1130.81L991.294,1130.81L937.928,1336.55L587.663,1336.55C415.162,1336.55 275.113,1196.5 275.113,1024C275.113,851.499 415.162,711.449 587.663,711.449C587.663,711.449 1100.07,711.449 1100.07,711.449L1000.21,1096.43ZM565.947,1073.76L578.498,1073.76C565.567,1118.07 533.238,1140.23 481.512,1140.23C448.232,1140.23 420.23,1128.91 397.505,1106.28C374.78,1083.65 363.417,1053.7 363.417,1016.43C363.417,978.201 375.683,947.203 400.215,923.432C424.746,899.661 453.747,887.775 487.217,887.775C507.375,887.775 525.916,892.197 542.841,901.04C559.766,909.883 568.229,920.675 568.229,933.416C568.229,938.17 566.66,942.639 563.522,946.823C560.384,951.007 555.868,953.098 549.973,953.098C537.422,953.098 529.72,945.777 526.867,931.134C524.585,920.104 521.067,912.402 516.313,908.028C511.368,903.654 501.765,901.468 487.502,901.468C462.02,901.468 442.86,910.31 430.024,927.996C417.187,945.682 410.769,972.305 410.769,1007.87C410.769,1044.57 417.663,1073.29 431.45,1094.01C445.237,1114.74 466.108,1125.11 494.063,1125.11C531.716,1125.11 555.678,1107.99 565.947,1073.76ZM654.41,947.393C660.875,930.468 671.382,916.301 685.93,904.891C700.478,893.48 714.693,887.775 728.576,887.775C741.127,887.775 751.015,891.674 758.242,899.471C765.468,907.268 769.082,915.255 769.082,923.432C769.082,928.947 767.227,933.701 763.519,937.695C759.811,941.688 755.294,943.685 749.97,943.685C740.461,943.685 733.235,936.649 728.29,922.576C724.867,913.068 719.733,908.314 712.887,908.314C704.709,908.314 694.916,913.876 683.505,925.001C672.095,936.126 664.774,947.679 661.541,959.659C658.308,971.64 656.692,988.089 656.692,1009.01L656.692,1050.65C656.692,1075.57 657.024,1091.26 657.69,1097.72C658.356,1104.19 661.066,1109.13 665.82,1112.56C670.574,1115.98 679.037,1117.69 691.207,1117.69L699.194,1117.69L699.194,1130.81L575.109,1130.81L575.109,1117.69L581.1,1117.69C592.51,1117.69 600.639,1116.12 605.489,1112.98C610.338,1109.85 613.238,1105.42 614.189,1099.72C615.14,1094.01 615.615,1077.66 615.615,1050.65L615.615,984.762C615.615,959.659 615.282,943.923 614.617,937.552C613.951,931.181 611.241,926.237 606.487,922.719C601.733,919.201 593.27,917.442 581.1,917.442L575.109,917.442L575.109,904.605C592.985,902.513 616.376,896.903 645.282,887.775C650.796,902.799 653.839,922.671 654.41,947.393Z" style="fill:rgb(62,169,117);"/>
    </g>
</svg>
